<svg width="41" height="32" viewBox="0 0 41 32" fill="none" xmlns="http://www.w3.org/2000/svg">
<path d="M36.7398 0.172991C36.9374 0.179364 37.1509 0.252651 37.3006 0.402414L38.1164 1.21814C38.4127 1.51448 38.435 1.98925 38.1674 2.31427L26.9256 15.9522V18.1189H18.7684V15.6718C18.7684 15.4328 18.8672 15.2161 19.0488 15.06L36.179 0.376922C36.3415 0.239906 36.5423 0.166618 36.7398 0.172991ZM37.5301 5.65365V12.4089C37.5301 12.8582 37.1636 13.2246 36.7143 13.2246C36.2651 13.2246 35.8986 13.591 35.8986 14.0403C35.8986 14.4896 36.2651 14.856 36.7143 14.856C37.1636 14.856 37.5301 14.4896 37.5301 14.0403H39.1615C39.1615 15.3882 38.0622 16.4875 36.7143 16.4875C35.3665 16.4875 34.2672 15.3882 34.2672 14.0403C34.2672 12.9761 34.9491 12.0584 35.8986 11.7206V7.64198L37.5301 5.65365ZM14.6898 7.51452C16.0376 7.51452 17.1369 8.61384 17.1369 9.9617V27.9077H13.7976C13.4056 30.2178 11.4014 31.9863 8.97967 31.9863C6.55799 31.9863 4.55054 30.2178 4.1618 27.9077H2.45387C1.10601 27.9077 0.00669479 26.8083 0.00669479 25.4605V17.6091C0.00669479 15.9681 1.18886 14.2921 1.33225 14.0913L4.72261 9.55383C5.5001 8.61702 6.71731 7.51452 8.16395 7.51452H14.6898ZM9.7954 12.4089H4.62064L2.63231 15.06C2.38377 15.4073 1.78791 16.4078 1.66364 17.3032H9.7954C10.1618 17.3032 10.6111 16.8539 10.6111 16.4875V13.2246C10.6111 12.7721 10.165 12.4089 9.7954 12.4089ZM40.793 19.7504V25.4605C40.793 26.8083 39.6937 27.9077 38.3458 27.9077H35.0064C34.6145 30.2178 32.6102 31.9863 30.1885 31.9863C27.7669 31.9863 25.7626 30.2178 25.3707 27.9077H18.7684V19.7504H40.793ZM30.1885 23.829C28.3882 23.829 26.9256 25.2916 26.9256 27.0919C26.9256 28.8923 28.3882 30.3548 30.1885 30.3548C31.9889 30.3548 33.4514 28.8923 33.4514 27.0919C33.4514 25.2916 31.9889 23.829 30.1885 23.829ZM8.97967 23.829C7.17934 23.829 5.71677 25.2916 5.71677 27.0919C5.71677 28.8923 7.17934 30.3548 8.97967 30.3548C10.78 30.3548 12.2426 28.8923 12.2426 27.0919C12.2426 25.2916 10.78 23.829 8.97967 23.829Z" fill="#F28E42"/>
</svg>
